<?xml version="1.0" encoding="UTF-8"?>
<svg version="1.1" viewBox="0 0 2048 1375" xmlns="http://www.w3.org/2000/svg" x="0px" y="0px"
     width="100%" enable-background="new 0 0 2048 1375" xml:space="preserve">
<path transform="translate(1017,170)" d="m0 0h12l19 2 19 5 16 7 20 10 24 14 27 15 21 12 23 13 18 10 23 13 26 15 18 10 14 9 3 4v249l-3 19-7 19-8 16-8 12-9 11-8 8-14 10-32 19-22 12-42 24-25 14-24 14-25 14-14 8-23 13-12 6-5-1-13-8-22-12-16-9-24-14-27-15-42-24-25-14-22-13-21-12-14-11-18-18-9-13-10-19-6-18-3-16v-253l5-4 27-15 24-14 24-13 15-9 29-16 24-14 27-15 17-10 23-13 14-6 18-5 12-2zm1 165-14 3-15 6-11 7-9 8-9 14-7 18-2 11v12l4 15 8 16 6 8 8 8 9 7 1 13v98l1 10 6 11 9 8 12 5 5 1h11l12-5 8-7 5-6 3-9 1-7 1-112 14-11 7-7 8-14 5-16 1-6v-17l-4-15-7-14-9-11-9-8-13-8-13-4-14-2z" fill="#23BEBC"/>
    <path transform="translate(1343,132)" d="m0 0 5 1 21 11 21 12 27 15 26 15 21 12 14 9 1 2v340l-3 34-5 25-7 26-8 22-8 18-14 27-16 24-8 10-13 16-9 10-16 16-14 11-13 10-21 14-23 13-17 10-41 23-17 10-14 8-8 5-5-1-17-10-25-14-35-20-23-13-21-12-10-6-1-2 16-9 21-12 18-10 21-12 16-9 17-10 22-12 24-14 27-15 18-11 12-9 14-12 8-8 10-13 9-15 8-15 7-19 5-23 2-27v-286z" fill="#05468F"/>
    <path transform="translate(985)" d="m0 0h73l28 5 30 7 26 8 26 11 20 10 24 14 43 24 41 24 4 4v151l-2 1-8-4-13-8-29-16-24-14-22-12-17-10-20-11-24-14-27-15-16-9-18-7-23-6-13-2-13-1h-17l-24 3-19 5-19 7-20 10-23 13-26 15-46 26-19 11-23 13-25 14-21 12-23 13-21 12-23 13-24 14-29 16-14 8-23 13-18 10-4 2h-3v-150l6-7 23-12 15-9 16-9 21-12 18-10 24-14 27-15 14-8 24-14 20-11 24-14 24-13 24-14 26-14 24-11 33-11 33-8z" fill="#05468F"/>
    <path transform="translate(701,334)" d="m0 0h3l1 222 2 19 5 22 7 19 10 19 10 14 7 9 9 10 8 8 18 13 18 11 26 15 20 11 28 16 18 10 28 16 23 13 21 12 23 13 21 12 16 9 24 14 24 13 15 9 46 26 17 10 10 5-5 5-15 8-17 10-46 26-21 12-24 14-4 3-7-1-49-28-25-14-14-8-17-10-20-11-21-12-16-9-49-28-25-14-42-24-20-12-22-15-11-9-13-11-10-9-11-11-9-11-8-9-14-19-13-21-12-23-12-28-8-26-6-27-3-18-2-22v-140l3-5 23-12 17-10 26-15 25-14 20-11z" fill="#05468F"/>
    <path transform="translate(105,1139)" d="m0 0h52l6 3 11 13 9 11 14 17 9 11 13 16 11 14 9 10 11 14 9 10 11 14 6 6-1-51v-26l1-61h55v231h-53l-5-3-12-15-9-11-11-13-11-14-18-22-11-14-12-14-13-16-8-10-7-7v139h-56l-1-27v-170z" fill="#05478F"/>
    <path transform="translate(686,1139)" d="m0 0h36l24 1 16 3 16 8 9 6 13 13 8 14 6 15 3 12 1 9v12l-3 17-5 16-9 16-12 13-10 5 1 5 32 48 8 13 2 6-67-1-6-9-13-23-9-16-5-8-40-1v58h-55l-1-4v-227zm-4 52v70l26 1 27-1 11-4 7-5 6-9 3-11v-12l-4-12-6-8-7-6-5-2-6-1z" fill="#05478F"/>
    <path transform="translate(1905,1139)" d="m0 0h41l5 2 5 10 11 27 18 43 11 26 17 40 18 44 9 20 7 14v4l-7 1-51 1-4-8-6-16-4-11-1-1h-98l-12 1-7 17-5 16-1 1h-58l1-7 11-25 36-86 16-38 15-36 12-30 4-8zm13 65-3 8-12 30-11 26-8 18v2l5 1h66l-3-9-9-21-15-38-8-16z" fill="#23BEBC"/>
    <path transform="translate(1182,1136)" d="m0 0h35l16 4 16 7 12 8 8 7 10 14 7 15 4 16-1 5-52 1-4-6-5-9-5-5-6-4-10-3h-16l-13 3-11 6-4 5-1 8 3 5 5 4 16 6 51 15 16 6 13 7 9 7 9 9 7 12 3 9 2 16-2 16-6 14-8 11-6 7-14 10-14 6-23 7h-39l-20-6-18-8-13-9-13-13-10-16-6-17-2-12 1-4 51-1 3 2 6 14 7 9 11 7 14 4 17 1 11-2 10-6 6-8 1-6-5-9-8-5-26-8-26-7-27-9-11-6-13-10-9-10-6-11-3-10-1-13 3-15 5-12 9-13 11-10 15-10 15-6 12-3z" fill="#05468F"/>
    <path transform="translate(1063,1139)" d="m0 0h8l3 1v129l-5 27-6 16-5 10-9 13-7 9h-2v2l-11 9-15 9-24 9-6 2h-41l-25-9-15-8-11-9-10-10-7-10-8-15-7-19-5-25-1-16v-114h56l1 122 2 17 4 12 8 15 7 7 9 5 16 4h17l15-5 11-8 7-9 6-12 3-11 2-23v-113l1-1z" fill="#05468F"/>
    <path transform="translate(1667,1135)" d="m0 0 23 1 20 4 16 6 17 9 13 10 14 14 7 11-1 4-9 6-22 13-10 6-4-1-9-11-5-6-14-9-12-4-11-2h-16l-12 2-13 5-10 7-7 6-8 11-5 11-4 16v19l4 16 6 12 7 9 9 9 15 8 16 4h20l15-4 17-9 6-5 7-10 4-5 6 2 21 12 17 10 2 4-11 16-10 11-15 11-16 9-20 8-15 4h-36l-21-6-19-7-11-6-12-9-12-11-10-13-9-16-6-15-4-14-2-15v-19l3-18 7-20 9-17 8-10 7-8 8-7 13-10 14-8 24-8 11-2z" fill="#23BEBC"/>
    <path transform="translate(369,1140)" d="m0 0h217v49l-3 2h-78v180h-56l-1-94v-28l1-58h-79l-2-4v-27z" fill="#05478F"/>
    <path transform="translate(1315,1140)" d="m0 0h216l1 1v46l-2 4-78 1v178l-1 1h-54l-1-1v-180l-23 1-53 1-5-1-1-3v-47z" fill="#05468F"/>
    <path transform="translate(0,1139)" d="m0 0h23l31 1 1 1-1 230h-31l-23-1z" fill="#05468F"/>
    <path transform="translate(628,1373)" d="m0 0 2 1z" fill="#23BEBC"/>
</svg>
